<mxfile host="app.diagrams.net" agent="Mozilla/5.0 (Windows NT 10.0; Win64; x64) AppleWebKit/537.36 (KHTML, like Gecko) Chrome/141.0.0.0 Safari/537.36" version="28.2.5">
  <diagram name="Página-1" id="tSvNxVfXGZo-txXaCuXj">
    <mxGraphModel dx="1106" dy="597" grid="1" gridSize="10" guides="1" tooltips="1" connect="1" arrows="1" fold="1" page="1" pageScale="1" pageWidth="827" pageHeight="1169" math="0" shadow="0" adaptiveColors="simple">
      <root>
        <mxCell id="0" />
        <mxCell id="1" parent="0" />
        <mxCell id="-fS9qOMYzr-xpj3dif4j-1" value="Usúario" style="shape=umlActor;verticalLabelPosition=bottom;verticalAlign=top;html=1;fontStyle=1;labelBackgroundColor=none;" vertex="1" parent="1">
          <mxGeometry x="60" y="250" width="30" height="60" as="geometry" />
        </mxCell>
        <mxCell id="-fS9qOMYzr-xpj3dif4j-14" value="" style="swimlane;startSize=0;labelBackgroundColor=none;" vertex="1" parent="1">
          <mxGeometry x="160" y="130" width="430" height="2160" as="geometry">
            <mxRectangle x="200" y="80" width="50" height="40" as="alternateBounds" />
          </mxGeometry>
        </mxCell>
        <mxCell id="-fS9qOMYzr-xpj3dif4j-32" value="ver cardapio" style="ellipse;whiteSpace=wrap;html=1;labelBackgroundColor=none;" vertex="1" parent="-fS9qOMYzr-xpj3dif4j-14">
          <mxGeometry x="65" y="210" width="110" height="60" as="geometry" />
        </mxCell>
        <mxCell id="-fS9qOMYzr-xpj3dif4j-33" value="fazer pedidos" style="ellipse;whiteSpace=wrap;html=1;labelBackgroundColor=none;" vertex="1" parent="-fS9qOMYzr-xpj3dif4j-14">
          <mxGeometry x="65" y="290" width="100" height="60" as="geometry" />
        </mxCell>
        <mxCell id="-fS9qOMYzr-xpj3dif4j-49" value="&lt;font face=&quot;Helvetica&quot;&gt;pagar o pedido&lt;/font&gt;" style="ellipse;whiteSpace=wrap;html=1;hachureGap=4;fontFamily=Architects Daughter;fontSource=https%3A%2F%2Ffonts.googleapis.com%2Fcss%3Ffamily%3DArchitects%2BDaughter;" vertex="1" parent="-fS9qOMYzr-xpj3dif4j-14">
          <mxGeometry x="220" y="240" width="120" height="80" as="geometry" />
        </mxCell>
        <mxCell id="-fS9qOMYzr-xpj3dif4j-50" value="&lt;font face=&quot;Helvetica&quot;&gt;&lt;b&gt;ver restaurantes online&lt;/b&gt;&lt;/font&gt;" style="ellipse;whiteSpace=wrap;html=1;hachureGap=4;fontFamily=Architects Daughter;fontSource=https%3A%2F%2Ffonts.googleapis.com%2Fcss%3Ffamily%3DArchitects%2BDaughter;" vertex="1" parent="-fS9qOMYzr-xpj3dif4j-14">
          <mxGeometry x="55" y="110" width="120" height="80" as="geometry" />
        </mxCell>
        <mxCell id="-fS9qOMYzr-xpj3dif4j-52" value="" style="endArrow=none;html=1;rounded=0;labelBackgroundColor=none;fontColor=default;entryX=-0.01;entryY=0.4;entryDx=0;entryDy=0;entryPerimeter=0;" edge="1" parent="-fS9qOMYzr-xpj3dif4j-14" target="-fS9qOMYzr-xpj3dif4j-33">
          <mxGeometry width="50" height="50" relative="1" as="geometry">
            <mxPoint x="-70" y="140" as="sourcePoint" />
            <mxPoint x="65" y="345" as="targetPoint" />
          </mxGeometry>
        </mxCell>
        <mxCell id="-fS9qOMYzr-xpj3dif4j-60" value="&lt;font face=&quot;Helvetica&quot;&gt;recebe pedido&lt;/font&gt;" style="ellipse;whiteSpace=wrap;html=1;hachureGap=4;fontFamily=Architects Daughter;fontSource=https%3A%2F%2Ffonts.googleapis.com%2Fcss%3Ffamily%3DArchitects%2BDaughter;" vertex="1" parent="-fS9qOMYzr-xpj3dif4j-14">
          <mxGeometry x="40" y="470" width="120" height="80" as="geometry" />
        </mxCell>
        <mxCell id="-fS9qOMYzr-xpj3dif4j-62" value="&lt;font face=&quot;Helvetica&quot;&gt;prepara comida&lt;/font&gt;" style="ellipse;whiteSpace=wrap;html=1;hachureGap=4;fontFamily=Architects Daughter;fontSource=https%3A%2F%2Ffonts.googleapis.com%2Fcss%3Ffamily%3DArchitects%2BDaughter;" vertex="1" parent="-fS9qOMYzr-xpj3dif4j-14">
          <mxGeometry x="40" y="560" width="120" height="80" as="geometry" />
        </mxCell>
        <mxCell id="-fS9qOMYzr-xpj3dif4j-63" value="&lt;font face=&quot;Helvetica&quot;&gt;entrega ao entregador&lt;/font&gt;" style="ellipse;whiteSpace=wrap;html=1;hachureGap=4;fontFamily=Architects Daughter;fontSource=https%3A%2F%2Ffonts.googleapis.com%2Fcss%3Ffamily%3DArchitects%2BDaughter;" vertex="1" parent="-fS9qOMYzr-xpj3dif4j-14">
          <mxGeometry x="40" y="660" width="120" height="80" as="geometry" />
        </mxCell>
        <mxCell id="-fS9qOMYzr-xpj3dif4j-66" value="" style="endArrow=none;html=1;rounded=0;entryX=0.033;entryY=0.338;entryDx=0;entryDy=0;entryPerimeter=0;" edge="1" parent="-fS9qOMYzr-xpj3dif4j-14" target="-fS9qOMYzr-xpj3dif4j-63">
          <mxGeometry width="50" height="50" relative="1" as="geometry">
            <mxPoint x="-51" y="490" as="sourcePoint" />
            <mxPoint x="40" y="585" as="targetPoint" />
          </mxGeometry>
        </mxCell>
        <mxCell id="-fS9qOMYzr-xpj3dif4j-69" value="&lt;font face=&quot;Helvetica&quot;&gt;retira a comida&lt;/font&gt;" style="ellipse;whiteSpace=wrap;html=1;hachureGap=4;fontFamily=Architects Daughter;fontSource=https%3A%2F%2Ffonts.googleapis.com%2Fcss%3Ffamily%3DArchitects%2BDaughter;" vertex="1" parent="-fS9qOMYzr-xpj3dif4j-14">
          <mxGeometry x="45" y="860" width="120" height="80" as="geometry" />
        </mxCell>
        <mxCell id="-fS9qOMYzr-xpj3dif4j-70" value="" style="endArrow=none;html=1;rounded=0;entryX=0;entryY=0.5;entryDx=0;entryDy=0;" edge="1" parent="-fS9qOMYzr-xpj3dif4j-14" target="-fS9qOMYzr-xpj3dif4j-69">
          <mxGeometry width="50" height="50" relative="1" as="geometry">
            <mxPoint x="-51" y="850" as="sourcePoint" />
            <mxPoint x="40" y="935" as="targetPoint" />
          </mxGeometry>
        </mxCell>
        <mxCell id="-fS9qOMYzr-xpj3dif4j-71" value="&lt;font face=&quot;Helvetica&quot;&gt;entrega um cliente&lt;/font&gt;" style="ellipse;whiteSpace=wrap;html=1;hachureGap=4;fontFamily=Architects Daughter;fontSource=https%3A%2F%2Ffonts.googleapis.com%2Fcss%3Ffamily%3DArchitects%2BDaughter;" vertex="1" parent="-fS9qOMYzr-xpj3dif4j-14">
          <mxGeometry x="40" y="990" width="120" height="80" as="geometry" />
        </mxCell>
        <mxCell id="-fS9qOMYzr-xpj3dif4j-76" value="" style="endArrow=none;html=1;rounded=0;exitX=1;exitY=0.5;exitDx=0;exitDy=0;entryX=0;entryY=0.5;entryDx=0;entryDy=0;" edge="1" parent="-fS9qOMYzr-xpj3dif4j-14" source="-fS9qOMYzr-xpj3dif4j-33" target="-fS9qOMYzr-xpj3dif4j-49">
          <mxGeometry width="50" height="50" relative="1" as="geometry">
            <mxPoint x="158.8908729652601" y="380.25126265847075" as="sourcePoint" />
            <mxPoint x="200" y="200" as="targetPoint" />
          </mxGeometry>
        </mxCell>
        <mxCell id="-fS9qOMYzr-xpj3dif4j-78" value="pagar com cartão" style="ellipse;whiteSpace=wrap;html=1;" vertex="1" parent="-fS9qOMYzr-xpj3dif4j-14">
          <mxGeometry x="310" y="330" width="100" height="65" as="geometry" />
        </mxCell>
        <mxCell id="-fS9qOMYzr-xpj3dif4j-77" value="pagar com pix" style="ellipse;whiteSpace=wrap;html=1;" vertex="1" parent="-fS9qOMYzr-xpj3dif4j-14">
          <mxGeometry x="180" y="360" width="100" height="70" as="geometry" />
        </mxCell>
        <mxCell id="-fS9qOMYzr-xpj3dif4j-79" value="" style="endArrow=none;html=1;rounded=0;exitX=1;exitY=1;exitDx=0;exitDy=0;entryX=0.28;entryY=0.108;entryDx=0;entryDy=0;entryPerimeter=0;startArrow=block;startFill=0;" edge="1" parent="-fS9qOMYzr-xpj3dif4j-14" source="-fS9qOMYzr-xpj3dif4j-49" target="-fS9qOMYzr-xpj3dif4j-78">
          <mxGeometry width="50" height="50" relative="1" as="geometry">
            <mxPoint x="310" y="250" as="sourcePoint" />
            <mxPoint x="350" y="270" as="targetPoint" />
          </mxGeometry>
        </mxCell>
        <mxCell id="-fS9qOMYzr-xpj3dif4j-80" value="" style="endArrow=none;html=1;rounded=0;exitX=0.342;exitY=0.975;exitDx=0;exitDy=0;entryX=0.64;entryY=0;entryDx=0;entryDy=0;exitPerimeter=0;startArrow=block;startFill=0;entryPerimeter=0;" edge="1" parent="-fS9qOMYzr-xpj3dif4j-14" source="-fS9qOMYzr-xpj3dif4j-49" target="-fS9qOMYzr-xpj3dif4j-77">
          <mxGeometry width="50" height="50" relative="1" as="geometry">
            <mxPoint x="180" y="267.5" as="sourcePoint" />
            <mxPoint x="220" y="287.5" as="targetPoint" />
            <Array as="points" />
          </mxGeometry>
        </mxCell>
        <mxCell id="-fS9qOMYzr-xpj3dif4j-81" value="pegar moto" style="ellipse;whiteSpace=wrap;html=1;" vertex="1" parent="-fS9qOMYzr-xpj3dif4j-14">
          <mxGeometry x="230" y="930" width="120" height="80" as="geometry" />
        </mxCell>
        <mxCell id="-fS9qOMYzr-xpj3dif4j-83" value="&lt;font face=&quot;Helvetica&quot;&gt;cartão, pix, bolrto, cupom&lt;/font&gt;" style="ellipse;whiteSpace=wrap;html=1;hachureGap=4;fontFamily=Architects Daughter;fontSource=https%3A%2F%2Ffonts.googleapis.com%2Fcss%3Ffamily%3DArchitects%2BDaughter;" vertex="1" parent="-fS9qOMYzr-xpj3dif4j-14">
          <mxGeometry x="194" y="1210" width="120" height="80" as="geometry" />
        </mxCell>
        <mxCell id="-fS9qOMYzr-xpj3dif4j-84" value="&lt;font face=&quot;Helvetica&quot;&gt;aprovação&lt;/font&gt;" style="ellipse;whiteSpace=wrap;html=1;hachureGap=4;fontFamily=Architects Daughter;fontSource=https%3A%2F%2Ffonts.googleapis.com%2Fcss%3Ffamily%3DArchitects%2BDaughter;" vertex="1" parent="-fS9qOMYzr-xpj3dif4j-14">
          <mxGeometry x="40" y="1280" width="120" height="80" as="geometry" />
        </mxCell>
        <mxCell id="-fS9qOMYzr-xpj3dif4j-85" value="&lt;font face=&quot;Helvetica&quot;&gt;processar transção&lt;/font&gt;" style="ellipse;whiteSpace=wrap;html=1;hachureGap=4;fontFamily=Architects Daughter;fontSource=https%3A%2F%2Ffonts.googleapis.com%2Fcss%3Ffamily%3DArchitects%2BDaughter;" vertex="1" parent="-fS9qOMYzr-xpj3dif4j-14">
          <mxGeometry x="40" y="1160" width="120" height="80" as="geometry" />
        </mxCell>
        <mxCell id="-fS9qOMYzr-xpj3dif4j-86" value="&lt;font face=&quot;Helvetica&quot;&gt;liberar pedido&lt;/font&gt;" style="ellipse;whiteSpace=wrap;html=1;hachureGap=4;fontFamily=Architects Daughter;fontSource=https%3A%2F%2Ffonts.googleapis.com%2Fcss%3Ffamily%3DArchitects%2BDaughter;" vertex="1" parent="-fS9qOMYzr-xpj3dif4j-14">
          <mxGeometry x="40" y="1400" width="120" height="80" as="geometry" />
        </mxCell>
        <mxCell id="-fS9qOMYzr-xpj3dif4j-87" value="" style="endArrow=none;html=1;rounded=0;" edge="1" parent="-fS9qOMYzr-xpj3dif4j-14">
          <mxGeometry width="50" height="50" relative="1" as="geometry">
            <mxPoint x="-30" y="1260" as="sourcePoint" />
            <mxPoint x="40" y="1210" as="targetPoint" />
          </mxGeometry>
        </mxCell>
        <mxCell id="-fS9qOMYzr-xpj3dif4j-88" value="" style="endArrow=none;html=1;rounded=0;entryX=0.058;entryY=0.225;entryDx=0;entryDy=0;entryPerimeter=0;" edge="1" parent="-fS9qOMYzr-xpj3dif4j-14" target="-fS9qOMYzr-xpj3dif4j-86">
          <mxGeometry width="50" height="50" relative="1" as="geometry">
            <mxPoint x="-30" y="1260" as="sourcePoint" />
            <mxPoint x="40" y="1440" as="targetPoint" />
          </mxGeometry>
        </mxCell>
        <mxCell id="-fS9qOMYzr-xpj3dif4j-89" value="" style="endArrow=none;html=1;rounded=0;" edge="1" parent="-fS9qOMYzr-xpj3dif4j-14">
          <mxGeometry width="50" height="50" relative="1" as="geometry">
            <mxPoint x="-30" y="1260" as="sourcePoint" />
            <mxPoint x="45" y="1310" as="targetPoint" />
            <Array as="points" />
          </mxGeometry>
        </mxCell>
        <mxCell id="-fS9qOMYzr-xpj3dif4j-90" value="" style="endArrow=none;html=1;rounded=0;entryX=0.05;entryY=0.288;entryDx=0;entryDy=0;entryPerimeter=0;startArrow=blockThin;startFill=0;" edge="1" parent="-fS9qOMYzr-xpj3dif4j-14" target="-fS9qOMYzr-xpj3dif4j-83">
          <mxGeometry width="50" height="50" relative="1" as="geometry">
            <mxPoint x="160" y="1210" as="sourcePoint" />
            <mxPoint x="235" y="1260" as="targetPoint" />
            <Array as="points" />
          </mxGeometry>
        </mxCell>
        <mxCell id="-fS9qOMYzr-xpj3dif4j-91" value="abrir app ou site" style="ellipse;whiteSpace=wrap;html=1;" vertex="1" parent="-fS9qOMYzr-xpj3dif4j-14">
          <mxGeometry x="55" y="20" width="120" height="80" as="geometry" />
        </mxCell>
        <mxCell id="-fS9qOMYzr-xpj3dif4j-92" value="" style="endArrow=none;html=1;rounded=0;entryX=0.008;entryY=0.625;entryDx=0;entryDy=0;entryPerimeter=0;labelBackgroundColor=none;fontColor=default;" edge="1" parent="-fS9qOMYzr-xpj3dif4j-14">
          <mxGeometry width="50" height="50" relative="1" as="geometry">
            <mxPoint x="-70" y="140" as="sourcePoint" />
            <mxPoint x="55" y="60" as="targetPoint" />
          </mxGeometry>
        </mxCell>
        <mxCell id="-fS9qOMYzr-xpj3dif4j-93" value="inclued" style="endArrow=block;endSize=16;endFill=0;html=1;rounded=0;entryX=1;entryY=0.5;entryDx=0;entryDy=0;" edge="1" parent="-fS9qOMYzr-xpj3dif4j-14" target="-fS9qOMYzr-xpj3dif4j-71">
          <mxGeometry width="160" relative="1" as="geometry">
            <mxPoint x="230" y="980" as="sourcePoint" />
            <mxPoint x="390" y="980" as="targetPoint" />
          </mxGeometry>
        </mxCell>
        <mxCell id="-fS9qOMYzr-xpj3dif4j-16" value="" style="endArrow=none;html=1;rounded=0;entryX=0.008;entryY=0.625;entryDx=0;entryDy=0;entryPerimeter=0;labelBackgroundColor=none;fontColor=default;" edge="1" parent="1" target="-fS9qOMYzr-xpj3dif4j-50">
          <mxGeometry width="50" height="50" relative="1" as="geometry">
            <mxPoint x="90" y="270" as="sourcePoint" />
            <mxPoint x="217.5" y="180" as="targetPoint" />
          </mxGeometry>
        </mxCell>
        <mxCell id="-fS9qOMYzr-xpj3dif4j-30" value="" style="endArrow=none;html=1;rounded=0;labelBackgroundColor=none;fontColor=default;entryX=0;entryY=0.5;entryDx=0;entryDy=0;" edge="1" parent="1" target="-fS9qOMYzr-xpj3dif4j-32">
          <mxGeometry width="50" height="50" relative="1" as="geometry">
            <mxPoint x="90" y="270" as="sourcePoint" />
            <mxPoint x="216" y="331" as="targetPoint" />
          </mxGeometry>
        </mxCell>
        <mxCell id="-fS9qOMYzr-xpj3dif4j-53" value="&lt;font face=&quot;Helvetica&quot;&gt;restaurante&lt;/font&gt;&lt;div&gt;&lt;font face=&quot;Helvetica&quot;&gt;(ator)&lt;/font&gt;&lt;/div&gt;" style="shape=umlActor;verticalLabelPosition=bottom;verticalAlign=top;html=1;hachureGap=4;fontFamily=Architects Daughter;fontSource=https%3A%2F%2Ffonts.googleapis.com%2Fcss%3Ffamily%3DArchitects%2BDaughter;" vertex="1" parent="1">
          <mxGeometry x="70" y="580" width="30" height="60" as="geometry" />
        </mxCell>
        <mxCell id="-fS9qOMYzr-xpj3dif4j-64" value="" style="endArrow=none;html=1;rounded=0;entryX=0.008;entryY=0.313;entryDx=0;entryDy=0;entryPerimeter=0;" edge="1" parent="1" target="-fS9qOMYzr-xpj3dif4j-62">
          <mxGeometry width="50" height="50" relative="1" as="geometry">
            <mxPoint x="110" y="620" as="sourcePoint" />
            <mxPoint x="160" y="570" as="targetPoint" />
          </mxGeometry>
        </mxCell>
        <mxCell id="-fS9qOMYzr-xpj3dif4j-65" value="" style="endArrow=none;html=1;rounded=0;entryX=0;entryY=0.5;entryDx=0;entryDy=0;" edge="1" parent="1" target="-fS9qOMYzr-xpj3dif4j-60">
          <mxGeometry width="50" height="50" relative="1" as="geometry">
            <mxPoint x="110" y="620" as="sourcePoint" />
            <mxPoint x="160" y="570" as="targetPoint" />
          </mxGeometry>
        </mxCell>
        <mxCell id="-fS9qOMYzr-xpj3dif4j-67" value="&lt;font face=&quot;Helvetica&quot;&gt;sistema&lt;/font&gt;&lt;br&gt;&lt;div&gt;&lt;font face=&quot;Helvetica&quot;&gt;(ator)&lt;/font&gt;&lt;/div&gt;" style="shape=umlActor;verticalLabelPosition=bottom;verticalAlign=top;html=1;hachureGap=4;fontFamily=Architects Daughter;fontSource=https%3A%2F%2Ffonts.googleapis.com%2Fcss%3Ffamily%3DArchitects%2BDaughter;" vertex="1" parent="1">
          <mxGeometry x="90" y="1350" width="30" height="60" as="geometry" />
        </mxCell>
        <mxCell id="-fS9qOMYzr-xpj3dif4j-68" value="&lt;div&gt;&lt;font face=&quot;Helvetica&quot;&gt;entregador&lt;/font&gt;&lt;/div&gt;&lt;div&gt;&lt;font face=&quot;Helvetica&quot;&gt;(ator)&lt;/font&gt;&lt;/div&gt;" style="shape=umlActor;verticalLabelPosition=bottom;verticalAlign=top;html=1;hachureGap=4;fontFamily=Architects Daughter;fontSource=https%3A%2F%2Ffonts.googleapis.com%2Fcss%3Ffamily%3DArchitects%2BDaughter;" vertex="1" parent="1">
          <mxGeometry x="80" y="940" width="30" height="60" as="geometry" />
        </mxCell>
        <mxCell id="-fS9qOMYzr-xpj3dif4j-72" value="" style="endArrow=none;html=1;rounded=0;entryX=0;entryY=0.5;entryDx=0;entryDy=0;" edge="1" parent="1" target="-fS9qOMYzr-xpj3dif4j-71">
          <mxGeometry width="50" height="50" relative="1" as="geometry">
            <mxPoint x="110" y="980" as="sourcePoint" />
            <mxPoint x="200" y="1041.43" as="targetPoint" />
            <Array as="points" />
          </mxGeometry>
        </mxCell>
      </root>
    </mxGraphModel>
  </diagram>
</mxfile>
